<svg xmlns="http://www.w3.org/2000/svg" viewBox="0 0 128 128" aria-hidden="true"><path fill="#9ca8cf" d="M24.6 82.2c12.3 9 27.4 13.9 40.9 13.9 18.9 0 36-7 48.9-18.7 2-1.8-.2-4.2-2.2-3.1-14 8.2-31.4 13.1-49.3 13.1-12 0-25.2-2.5-37.3-7.8-1.8-.8-3.4 1.2-1 2.6zm80.1-9.1c-1.6-2-10.8-.9-14.9-.4-1.3.2-1.5-1-.3-1.9 7.8-5.5 20.6-3.9 22.1-2 1.5 1.9-.4 14.6-7.7 20.7-1.1.9-2.2.4-1.8-.8 1.4-3.4 4.6-10.9 2.6-13.6zM81.5 54.8v-6.4c0-1 .7-1.7 1.7-1.7h28.7c1 0 1.8.7 1.8 1.7v5.5c0 .9-.8 2.1-2.3 4.2l-14.8 21.2c5.5-.1 11.3.7 16.3 3.5 1.1.6 1.4 1.5 1.5 2.4v6.8c0 .9-1 2-2 1.5-8.8-4.6-20.5-5.1-30.2.1-.9.5-1.9-.5-1.9-1.5v-6.5c0-1 .1-2.8 1.1-4.2l17.1-24.6H83.2c-1 0-1.7-.7-1.7-1.7zm-10.5 39.6h-8.7c-.8-.1-1.5-.7-1.6-1.5V48.3c0-.9.8-1.6 1.7-1.6h8.1c.8 0 1.5.6 1.6 1.4V54h.2c2.1-5.7 6-8.3 11.4-8.3 5.5 0 8.9 2.6 11.4 8.3 2.1-5.7 6.8-8.3 12-8.3 3.7 0 7.7 1.5 10.2 4.8 2.8 3.7 2.2 9 2.2 13.7l-.1 27.5c0 .9-.8 1.6-1.7 1.6h-8.7c-.9-.1-1.6-.8-1.6-1.6V68.6c0-1.8.2-6.4-.2-8.1-.7-2.8-2.6-3.6-5.2-3.6-2.2 0-4.5 1.5-5.4 3.8-.9 2.3-.8 6.2-.8 8v22.9c0 .9-.8 1.6-1.7 1.6h-8.7c-.9-.1-1.6-.8-1.6-1.6V68.6c0-4.8.8-11.9-5.4-11.9-6.3 0-6.1 7.2-6.1 11.9v22.9c0 .9-.8 1.6-1.7 1.6z"/></svg>
